<svg version="1.1" id="Layer_1" xmlns="http://www.w3.org/2000/svg" xmlns:xlink="http://www.w3.org/1999/xlink" x="0px" y="0px"
	 width="100%" viewBox="0 0 943 464" enable-background="new 0 0 943 464" xml:space="preserve">
<path fill="#FFFFFF" opacity="1.000000" stroke="none" 
	d="
M633.000000,465.000000 
	C422.000000,465.000000 211.500000,465.000000 1.000000,465.000000 
	C1.000000,310.333344 1.000000,155.666672 1.000000,1.000000 
	C315.333344,1.000000 629.666687,1.000000 944.000000,1.000000 
	C944.000000,155.666672 944.000000,310.333344 944.000000,465.000000 
	C840.500000,465.000000 737.000000,465.000000 633.000000,465.000000 
M587.567993,423.088684 
	C587.567993,423.088684 587.954529,422.784485 588.427734,422.792450 
	C588.766907,422.694916 588.972168,422.473328 589.548462,422.066895 
	C589.678772,421.958374 589.809021,421.849884 590.592773,421.637421 
	C604.120361,412.630127 610.866943,399.927429 610.925354,383.748505 
	C611.012085,359.751434 610.997375,335.753571 610.922302,311.756409 
	C610.870117,295.092133 607.527161,279.064819 601.487793,263.531189 
	C600.609253,261.271423 600.426697,258.237335 601.140259,255.939896 
	C608.576904,231.997528 612.646790,207.558792 609.718567,182.578705 
	C608.081970,168.617676 604.676819,154.798279 601.164429,141.147690 
	C599.089050,133.081909 591.252014,130.288910 583.548523,133.677032 
	C579.897400,135.282867 576.306091,137.052261 572.798035,138.951324 
	C552.104492,150.153351 533.822632,164.476318 517.870178,181.759628 
	C516.011536,183.773346 514.361572,184.591675 511.422699,183.749908 
	C487.173340,176.804337 462.784180,176.799728 438.464569,183.273270 
	C434.270294,184.389755 431.969604,183.276581 428.939911,180.482147 
	C419.183441,171.483215 408.972046,162.977554 398.500824,153.741241 
	C387.058685,146.993088 375.748962,140.004837 364.120850,133.593979 
	C357.935638,130.183945 349.708038,133.566910 347.306915,140.446579 
	C342.874176,153.147400 339.972748,166.014603 338.670990,179.397430 
	C336.776581,198.872665 337.344696,218.105392 342.151855,237.715179 
	C342.431335,238.469910 342.710815,239.224655 342.934052,240.778046 
	C344.052216,244.933929 344.846558,249.213669 346.376129,253.212173 
	C348.031403,257.539429 347.732056,261.278046 345.996002,265.612579 
	C340.539307,279.236664 337.484406,293.443268 337.191101,309.071533 
	C337.164764,325.685699 337.094299,342.299957 337.129028,358.914001 
	C337.149170,368.536499 337.338623,378.158661 337.286896,388.568207 
	C338.900116,393.700439 340.513336,398.832703 342.101257,404.438354 
	C342.186768,404.779694 342.399567,404.995728 342.881653,405.660858 
	C343.196198,405.850006 343.510742,406.039154 343.710876,406.193665 
	C343.710876,406.193665 343.683411,406.310059 343.734863,406.992340 
	C347.168610,412.985687 351.209381,418.377472 357.890442,421.205658 
	C357.890442,421.205658 357.862457,421.149994 358.186005,421.771881 
	C364.512604,423.726074 370.839203,425.680267 378.051178,427.878387 
	C441.827911,427.907898 505.604675,427.938660 569.381409,427.952606 
	C570.200378,427.952789 571.019348,427.738464 572.643127,427.791901 
	C577.458008,426.223572 582.272949,424.655243 586.992310,423.081909 
	C586.992310,423.081909 587.077515,423.125519 587.567993,423.088684 
z"/>
<path fill="#28AFD1" opacity="1.000000" stroke="none" 
	d="
M398.936035,154.281708 
	C408.972046,162.977554 419.183441,171.483215 428.939911,180.482147 
	C431.969604,183.276581 434.270294,184.389755 438.464569,183.273270 
	C462.784180,176.799728 487.173340,176.804337 511.422699,183.749908 
	C514.361572,184.591675 516.011536,183.773346 517.870178,181.759628 
	C533.822632,164.476318 552.104492,150.153351 572.798035,138.951324 
	C576.306091,137.052261 579.897400,135.282867 583.548523,133.677032 
	C591.252014,130.288910 599.089050,133.081909 601.164429,141.147690 
	C604.676819,154.798279 608.081970,168.617676 609.718567,182.578705 
	C612.646790,207.558792 608.576904,231.997528 601.140259,255.939896 
	C600.426697,258.237335 600.609253,261.271423 601.487793,263.531189 
	C607.527161,279.064819 610.870117,295.092133 610.922302,311.756409 
	C610.997375,335.753571 611.012085,359.751434 610.925354,383.748505 
	C610.866943,399.927429 604.120361,412.630127 590.137207,421.568359 
	C589.468994,421.708740 589.256226,421.918182 589.043518,422.127655 
	C588.972168,422.473328 588.766907,422.694916 588.069519,422.658386 
	C587.500061,422.724762 587.288757,422.925140 587.077515,423.125519 
	C587.077515,423.125519 586.992310,423.081909 586.630371,423.054504 
	C576.388306,423.745514 566.508301,424.463928 556.628235,425.182343 
	C556.634766,425.639893 556.641296,426.097473 556.647827,426.555023 
	C561.711365,426.911438 566.774841,427.267853 571.838318,427.624237 
	C571.019348,427.738464 570.200378,427.952789 569.381409,427.952606 
	C505.604675,427.938660 441.827911,427.907898 377.932800,427.541931 
	C381.699951,427.025452 385.585449,426.845428 389.470978,426.665405 
	C382.079254,424.868744 374.831329,423.625244 367.570862,422.459595 
	C364.347717,421.942108 361.099365,421.581726 357.862457,421.149994 
	C357.862457,421.149994 357.890442,421.205658 357.884094,420.813324 
	C358.314453,417.132324 358.751099,413.843658 359.065430,411.476349 
	C355.586243,410.346863 352.084717,409.227936 348.596222,408.069824 
	C346.945770,407.521912 345.320221,406.898987 343.683411,406.310059 
	C343.683411,406.310059 343.710876,406.193665 343.703949,405.928101 
	C343.377869,405.470520 343.058716,405.278473 342.739594,405.086426 
	C342.399567,404.995728 342.186768,404.779694 342.362701,403.956604 
	C342.782593,400.749573 343.105560,398.021912 343.065979,395.299469 
	C342.977722,389.229706 342.962433,383.140564 342.438232,377.100861 
	C341.956329,371.548889 340.236725,366.061035 340.149170,360.527710 
	C339.995392,350.808990 340.649719,341.076263 341.023651,331.351685 
	C341.079834,329.890442 341.577881,328.447388 341.648315,326.985199 
	C341.783569,324.177429 341.840149,321.360260 341.782745,318.550018 
	C341.674988,313.276703 341.325470,308.005035 341.344238,302.733643 
	C341.356049,299.417908 341.664307,296.073883 342.181091,292.796356 
	C342.906799,288.193695 343.324371,283.397003 344.993042,279.119995 
	C348.053284,271.276276 351.298553,263.762268 349.299805,254.937225 
	C348.327301,250.643433 348.741760,246.035522 348.515106,241.292343 
	C347.556702,239.896606 346.089142,237.970383 344.849152,235.907349 
	C342.634888,232.223343 342.908234,228.804153 344.638336,224.653763 
	C346.296997,220.674698 346.014252,215.886353 346.584686,211.453674 
	C348.416504,214.883118 350.071838,217.106277 354.198883,215.255264 
	C355.163025,214.822830 356.722809,215.718445 358.021545,216.412323 
	C358.990692,221.308380 359.844666,225.820068 360.931946,230.274811 
	C362.005341,234.672897 364.150238,235.308151 367.338043,232.067261 
	C370.448639,228.904816 373.349335,225.523285 376.162262,222.090439 
	C376.786346,221.328827 376.656067,219.949066 376.929047,218.898163 
	C376.984985,218.942398 376.845734,218.911407 377.110809,218.837799 
	C377.553833,218.457504 377.731781,218.150818 377.925598,217.914398 
	C377.941498,217.984680 377.852264,217.871567 378.227295,217.915451 
	C381.373291,215.264755 384.144257,212.570175 386.954102,209.913361 
	C386.992950,209.951111 386.885406,209.937775 387.141907,209.871399 
	C387.596100,209.524231 387.793823,209.243454 387.996338,208.981842 
	C388.001160,209.001007 387.965363,208.984253 388.333099,208.996429 
	C389.422943,208.278336 390.145020,207.548065 390.939880,206.867828 
	C391.012604,206.917877 390.846283,206.858978 391.240723,206.907578 
	C398.327789,203.207672 405.100250,199.590958 411.656494,195.617447 
	C413.284668,194.630661 414.026001,192.539948 410.553558,192.057373 
	C410.118073,191.760895 409.976410,191.510956 409.865906,190.931702 
	C409.496490,190.454941 409.195618,190.251007 408.938934,190.033081 
	C408.983093,190.019104 408.949158,190.105301 408.872101,189.850067 
	C408.505219,189.406403 408.215393,189.217941 407.960297,189.017242 
	C407.995056,189.004990 407.970673,189.074539 407.880737,188.823959 
	C407.492584,188.399414 407.194366,188.225449 406.939972,188.034424 
	C406.983826,188.017365 406.949310,188.104919 406.867645,187.848434 
	C406.486694,187.413651 406.187439,187.235352 405.933899,187.039124 
	C405.979675,187.021164 405.943756,187.112671 405.863098,186.854782 
	C405.481781,186.418640 405.181152,186.240402 404.935181,186.057114 
	C404.989868,186.052078 404.909698,186.127121 404.921356,185.771057 
	C402.162384,182.401230 399.688202,179.018524 396.533020,176.483383 
	C393.701447,174.208252 390.121063,172.865021 386.937805,171.076721 
	C387.004608,171.042725 386.898834,171.148987 386.891571,170.784531 
	C385.905121,169.957382 384.925964,169.494675 383.971558,169.015045 
	C383.996338,168.998123 383.973816,169.053574 383.970459,168.726089 
	C383.312439,167.594711 382.657745,166.790817 382.045654,165.609344 
	C384.454956,157.627853 385.607330,156.943985 393.361481,156.746109 
	C395.239410,156.698166 397.078888,155.143524 398.936035,154.281708 
M551.352783,202.085617 
	C562.618469,211.980133 573.884155,221.874649 585.427917,232.013336 
	C586.352844,224.983154 587.379883,217.442810 588.330811,209.892899 
	C590.244141,194.701981 588.994751,179.685043 585.514648,164.843246 
	C584.233826,159.380524 582.423401,158.613327 577.310059,161.247513 
	C573.625793,163.145493 569.926331,165.181808 566.675232,167.721680 
	C556.528198,175.648849 546.591064,183.844604 535.850769,192.519150 
	C541.778259,196.177048 546.258911,198.942078 551.352783,202.085617 
M432.116669,322.742401 
	C438.974396,316.787048 441.118896,308.128571 437.540436,300.843719 
	C434.271545,294.189087 426.326630,290.122101 419.302948,291.624237 
	C412.214325,293.140350 407.202332,297.157196 405.564819,304.392273 
	C403.924713,311.638519 405.894989,317.988800 411.957123,322.517151 
	C418.203888,327.183411 424.836761,327.218140 432.116669,322.742401 
M541.796753,302.049744 
	C536.917114,293.183685 530.533691,289.972931 521.781128,291.982208 
	C514.450439,293.665070 509.099304,300.126251 508.914886,307.807037 
	C508.746124,314.834808 511.297882,320.531189 517.783813,323.897614 
	C524.353943,327.307648 530.783508,326.750488 536.482117,322.121979 
	C542.685303,317.083618 544.371338,310.450836 541.796753,302.049744 
M449.307190,425.000580 
	C447.070038,425.132935 444.832855,425.265320 442.595703,425.397675 
	C442.641876,425.721771 442.688080,426.045837 442.734283,426.369934 
	C446.265533,426.369934 449.796783,426.369934 453.328033,426.369934 
	C453.337433,426.055695 453.346832,425.741455 453.356232,425.427216 
	C452.292267,425.285187 451.228271,425.143188 449.307190,425.000580 
M432.992493,425.502655 
	C431.650970,425.802490 430.309479,426.102325 428.967957,426.402130 
	C429.003540,426.632843 429.039124,426.863586 429.074707,427.094299 
	C431.540955,426.917480 434.007233,426.740631 436.473511,426.563812 
	C436.452087,426.169891 436.430664,425.775940 436.409241,425.381989 
	C435.506714,425.329041 434.604218,425.276093 432.992493,425.502655 
M510.297211,425.431702 
	C510.010498,425.705200 509.723785,425.978729 509.437042,426.252228 
	C509.550629,426.370697 509.756531,426.598541 509.764435,426.591858 
	C510.066772,426.336761 510.350952,426.060120 510.297211,425.431702 
M526.520325,426.922455 
	C526.764954,426.776978 527.009644,426.631470 527.254272,426.485962 
	C527.002014,426.351166 526.685730,426.054626 526.513794,426.122711 
	C526.302490,426.206390 526.211731,426.594360 526.520325,426.922455 
M478.046814,426.159332 
	C478.198334,426.413177 478.300415,426.797272 478.517029,426.879456 
	C478.689087,426.944733 479.001251,426.640717 479.251221,426.500641 
	C479.000977,426.360138 478.750732,426.219635 478.046814,426.159332 
z"/>
<path fill="#27ABCC" opacity="1.000000" stroke="none" 
	d="
M358.008545,216.003052 
	C356.722809,215.718445 355.163025,214.822830 354.198883,215.255264 
	C350.071838,217.106277 348.416504,214.883118 346.584686,211.453674 
	C346.014252,215.886353 346.296997,220.674698 344.638336,224.653763 
	C342.908234,228.804153 342.634888,232.223343 344.849152,235.907349 
	C346.089142,237.970383 347.556702,239.896606 348.515106,241.292343 
	C348.741760,246.035522 348.327301,250.643433 349.299805,254.937225 
	C351.298553,263.762268 348.053284,271.276276 344.993042,279.119995 
	C343.324371,283.397003 342.906799,288.193695 342.181091,292.796356 
	C341.664307,296.073883 341.356049,299.417908 341.344238,302.733643 
	C341.325470,308.005035 341.674988,313.276703 341.782745,318.550018 
	C341.840149,321.360260 341.783569,324.177429 341.648315,326.985199 
	C341.577881,328.447388 341.079834,329.890442 341.023651,331.351685 
	C340.649719,341.076263 339.995392,350.808990 340.149170,360.527710 
	C340.236725,366.061035 341.956329,371.548889 342.438232,377.100861 
	C342.962433,383.140564 342.977722,389.229706 343.065979,395.299469 
	C343.105560,398.021912 342.782593,400.749573 342.375366,403.719910 
	C340.513336,398.832703 338.900116,393.700439 337.562836,387.840942 
	C337.890106,361.434753 337.945251,335.755859 337.970001,310.076935 
	C337.970612,309.453186 337.632416,308.829102 337.452240,308.205170 
	C337.484406,293.443268 340.539307,279.236664 345.996002,265.612579 
	C347.732056,261.278046 348.031403,257.539429 346.376129,253.212173 
	C344.846558,249.213669 344.052216,244.933929 342.966675,240.068481 
	C342.763824,238.608856 342.528290,237.858780 342.292786,237.108704 
	C337.344696,218.105392 336.776581,198.872665 338.670990,179.397430 
	C339.972748,166.014603 342.874176,153.147400 347.306915,140.446579 
	C349.708038,133.566910 357.935638,130.183945 364.120850,133.593979 
	C375.748962,140.004837 387.058685,146.993088 398.718445,154.011475 
	C397.078888,155.143524 395.239410,156.698166 393.361481,156.746109 
	C385.607330,156.943985 384.454956,157.627853 381.737061,165.464539 
	C377.585724,163.138031 373.785522,160.578751 370.039307,157.676270 
	C371.261139,156.247589 372.428955,155.162094 373.586182,154.086456 
	C374.832764,155.249191 375.791107,156.143082 376.025543,156.361771 
	C378.697327,154.848221 380.633698,153.751251 382.875549,152.481247 
	C379.811584,149.304001 379.938049,144.590622 375.441467,141.124237 
	C369.965179,136.902588 363.334717,142.501434 359.018127,137.139496 
	C358.893158,136.984268 358.101868,137.307739 357.650299,137.482834 
	C355.317902,138.387268 352.994934,139.316086 350.937927,140.129883 
	C350.589294,142.983047 351.351959,147.392960 349.570038,149.025681 
	C346.235321,152.081161 346.166504,155.394577 345.754883,159.133270 
	C345.060913,165.436066 346.366791,167.799973 352.140564,170.081512 
	C355.694641,171.485947 357.266907,169.477219 356.605072,166.673996 
	C355.581482,162.338760 357.396301,161.188995 361.045319,161.439011 
	C357.130768,179.746490 356.273376,197.802292 358.008545,216.003052 
M349.990601,174.382172 
	C349.762054,173.427307 349.533478,172.472443 349.304932,171.517578 
	C348.932068,171.559998 348.559204,171.602417 348.186340,171.644836 
	C348.186340,173.016113 348.186340,174.387405 348.186340,175.758698 
	C348.777985,175.542404 349.369598,175.326111 349.990601,174.382172 
z"/>
<path fill="#27ABCC" opacity="1.000000" stroke="none" 
	d="
M343.709137,406.651184 
	C345.320221,406.898987 346.945770,407.521912 348.596222,408.069824 
	C352.084717,409.227936 355.586243,410.346863 359.065430,411.476349 
	C358.751099,413.843658 358.314453,417.132324 357.853210,420.817413 
	C351.209381,418.377472 347.168610,412.985687 343.709137,406.651184 
z"/>
<path fill="#27ABCC" opacity="1.000000" stroke="none" 
	d="
M572.240723,427.708069 
	C566.774841,427.267853 561.711365,426.911438 556.647827,426.555023 
	C556.641296,426.097473 556.634766,425.639893 556.628235,425.182343 
	C566.508301,424.463928 576.388306,423.745514 586.678101,423.057007 
	C582.272949,424.655243 577.458008,426.223572 572.240723,427.708069 
z"/>
<path fill="#28AFD1" opacity="1.000000" stroke="none" 
	d="
M337.321655,308.638367 
	C337.632416,308.829102 337.970612,309.453186 337.970001,310.076935 
	C337.945251,335.755859 337.890106,361.434753 337.645325,387.447327 
	C337.338623,378.158661 337.149170,368.536499 337.129028,358.914001 
	C337.094299,342.299957 337.164764,325.685699 337.321655,308.638367 
z"/>
<path fill="#27ABCC" opacity="1.000000" stroke="none" 
	d="
M358.024231,421.460938 
	C361.099365,421.581726 364.347717,421.942108 367.570862,422.459595 
	C374.831329,423.625244 382.079254,424.868744 389.470978,426.665405 
	C385.585449,426.845428 381.699951,427.025452 377.490112,427.419952 
	C370.839203,425.680267 364.512604,423.726074 358.024231,421.460938 
z"/>
<path fill="#28AFD1" opacity="1.000000" stroke="none" 
	d="
M342.222290,237.411942 
	C342.528290,237.858780 342.763824,238.608856 342.994812,239.669159 
	C342.710815,239.224655 342.431335,238.469910 342.222290,237.411942 
z"/>
<path fill="#27ABCC" opacity="1.000000" stroke="none" 
	d="
M589.296021,422.097290 
	C589.256226,421.918182 589.468994,421.708740 589.810486,421.620361 
	C589.809021,421.849884 589.678772,421.958374 589.296021,422.097290 
z"/>
<path fill="#27ABCC" opacity="1.000000" stroke="none" 
	d="
M587.322754,423.107117 
	C587.288757,422.925140 587.500061,422.724762 587.832886,422.654419 
	C587.954529,422.784485 587.567993,423.088684 587.322754,423.107117 
z"/>
<path fill="#27ABCC" opacity="1.000000" stroke="none" 
	d="
M342.810608,405.373657 
	C343.058716,405.278473 343.377869,405.470520 343.761169,405.945435 
	C343.510742,406.039154 343.196198,405.850006 342.810608,405.373657 
z"/>
<path fill="#F8FEFE" opacity="1.000000" stroke="none" 
	d="
M551.046143,201.896362 
	C546.258911,198.942078 541.778259,196.177048 535.850769,192.519150 
	C546.591064,183.844604 556.528198,175.648849 566.675232,167.721680 
	C569.926331,165.181808 573.625793,163.145493 577.310059,161.247513 
	C582.423401,158.613327 584.233826,159.380524 585.514648,164.843246 
	C588.994751,179.685043 590.244141,194.701981 588.330811,209.892899 
	C587.379883,217.442810 586.352844,224.983154 585.427917,232.013336 
	C573.884155,221.874649 562.618469,211.980133 551.046143,201.896362 
z"/>
<path fill="#F8FEFF" opacity="1.000000" stroke="none" 
	d="
M409.934509,191.204498 
	C409.976410,191.510956 410.118073,191.760895 410.530029,192.384796 
	C409.449036,193.787903 408.237122,194.817505 406.938843,195.723251 
	C401.588928,199.455627 396.212769,203.150375 390.846283,206.858978 
	C390.846283,206.858978 391.012604,206.917877 390.627502,206.916901 
	C389.483398,207.605347 388.724396,208.294800 387.965363,208.984253 
	C387.965363,208.984253 388.001160,209.001007 387.741638,209.054443 
	C387.283203,209.384506 387.084320,209.661133 386.885406,209.937775 
	C386.885406,209.937775 386.992950,209.951111 386.621765,209.976395 
	C383.451111,212.624985 380.651703,215.248276 377.852295,217.871582 
	C377.852264,217.871567 377.941498,217.984680 377.664673,217.993896 
	C377.207153,218.305862 377.026428,218.608627 376.845703,218.911407 
	C376.845734,218.911407 376.984985,218.942398 376.617554,219.021790 
	C372.227081,223.421631 368.204041,227.742096 363.074829,233.250473 
	C361.700836,223.402802 360.234894,214.952759 359.399109,206.440842 
	C358.020935,192.405029 359.383667,178.503265 362.837616,164.853821 
	C364.247589,159.281799 365.967346,158.709991 371.094940,161.528839 
	C375.450500,163.923248 379.685486,166.536911 383.973816,169.053574 
	C383.973816,169.053574 383.996338,168.998123 384.118469,169.293610 
	C385.126648,170.109070 386.012756,170.629028 386.898834,171.148987 
	C386.898834,171.148987 387.004608,171.042725 387.084930,171.378723 
	C393.080048,176.518860 398.994873,181.322998 404.909698,186.127136 
	C404.909698,186.127121 404.989868,186.052078 405.009033,186.320923 
	C405.333374,186.764053 405.638580,186.938354 405.943756,187.112671 
	C405.943756,187.112671 405.979675,187.021164 406.007874,187.301437 
	C406.340454,187.756119 406.644897,187.930527 406.949310,188.104919 
	C406.949310,188.104919 406.983826,188.017365 407.015320,188.293945 
	C407.354736,188.738541 407.662720,188.906540 407.970673,189.074539 
	C407.970673,189.074539 407.995056,189.004990 408.035553,189.276154 
	C408.367096,189.733307 408.658112,189.919312 408.949158,190.105301 
	C408.949158,190.105301 408.983093,190.019104 409.012695,190.300491 
	C409.339691,190.789413 409.637115,190.996964 409.934509,191.204498 
z"/>
<path fill="#F6FEFE" opacity="1.000000" stroke="none" 
	d="
M431.799316,322.940063 
	C424.836761,327.218140 418.203888,327.183411 411.957123,322.517151 
	C405.894989,317.988800 403.924713,311.638519 405.564819,304.392273 
	C407.202332,297.157196 412.214325,293.140350 419.302948,291.624237 
	C426.326630,290.122101 434.271545,294.189087 437.540436,300.843719 
	C441.118896,308.128571 438.974396,316.787048 431.799316,322.940063 
z"/>
<path fill="#F6FEFE" opacity="1.000000" stroke="none" 
	d="
M541.911621,302.429016 
	C544.371338,310.450836 542.685303,317.083618 536.482117,322.121979 
	C530.783508,326.750488 524.353943,327.307648 517.783813,323.897614 
	C511.297882,320.531189 508.746124,314.834808 508.914886,307.807037 
	C509.099304,300.126251 514.450439,293.665070 521.781128,291.982208 
	C530.533691,289.972931 536.917114,293.183685 541.911621,302.429016 
z"/>
<path fill="#4AAABF" opacity="1.000000" stroke="none" 
	d="
M383.970459,168.726089 
	C379.685486,166.536911 375.450500,163.923248 371.094940,161.528839 
	C365.967346,158.709991 364.247589,159.281799 362.837616,164.853821 
	C359.383667,178.503265 358.020935,192.405029 359.399109,206.440842 
	C360.234894,214.952759 361.700836,223.402802 363.074829,233.250473 
	C368.204041,227.742096 372.227081,223.421631 376.561646,218.977554 
	C376.656067,219.949066 376.786346,221.328827 376.162262,222.090439 
	C373.349335,225.523285 370.448639,228.904816 367.338043,232.067261 
	C364.150238,235.308151 362.005341,234.672897 360.931946,230.274811 
	C359.844666,225.820068 358.990692,221.308380 358.021545,216.412338 
	C356.273376,197.802292 357.130768,179.746490 361.326538,161.224548 
	C364.406433,159.731796 367.195892,158.875626 369.985352,158.019470 
	C373.785522,160.578751 377.585724,163.138031 381.694458,165.842117 
	C382.657745,166.790817 383.312439,167.594711 383.970459,168.726089 
z"/>
<path fill="#4AAABF" opacity="1.000000" stroke="none" 
	d="
M391.240723,206.907578 
	C396.212769,203.150375 401.588928,199.455627 406.938843,195.723251 
	C408.237122,194.817505 409.449036,193.787903 410.724182,192.487839 
	C414.026001,192.539948 413.284668,194.630661 411.656494,195.617447 
	C405.100250,199.590958 398.327789,203.207672 391.240723,206.907578 
z"/>
<path fill="#4AAABF" opacity="1.000000" stroke="none" 
	d="
M404.921356,185.771072 
	C398.994873,181.322998 393.080048,176.518860 387.018127,171.412720 
	C390.121063,172.865021 393.701447,174.208252 396.533020,176.483383 
	C399.688202,179.018524 402.162384,182.401230 404.921356,185.771072 
z"/>
<path fill="#27ABCC" opacity="1.000000" stroke="none" 
	d="
M449.735748,425.000854 
	C451.228271,425.143188 452.292267,425.285187 453.356232,425.427216 
	C453.346832,425.741455 453.337433,426.055695 453.328033,426.369934 
	C449.796783,426.369934 446.265533,426.369934 442.734283,426.369934 
	C442.688080,426.045837 442.641876,425.721771 442.595703,425.397675 
	C444.832855,425.265320 447.070038,425.132935 449.735748,425.000854 
z"/>
<path fill="#4AAABF" opacity="1.000000" stroke="none" 
	d="
M378.227295,217.915466 
	C380.651703,215.248276 383.451111,212.624985 386.582886,209.938629 
	C384.144257,212.570175 381.373291,215.264755 378.227295,217.915466 
z"/>
<path fill="#27ABCC" opacity="1.000000" stroke="none" 
	d="
M433.347107,425.362915 
	C434.604218,425.276093 435.506714,425.329041 436.409241,425.381989 
	C436.430664,425.775940 436.452087,426.169891 436.473511,426.563812 
	C434.007233,426.740631 431.540955,426.917480 429.074707,427.094299 
	C429.039124,426.863586 429.003540,426.632843 428.967957,426.402130 
	C430.309479,426.102325 431.650970,425.802490 433.347107,425.362915 
z"/>
<path fill="#4AAABF" opacity="1.000000" stroke="none" 
	d="
M388.333099,208.996429 
	C388.724396,208.294800 389.483398,207.605347 390.554779,206.866852 
	C390.145020,207.548065 389.422943,208.278336 388.333099,208.996429 
z"/>
<path fill="#4AAABF" opacity="1.000000" stroke="none" 
	d="
M386.891571,170.784531 
	C386.012756,170.629028 385.126648,170.109070 384.093689,169.310547 
	C384.925964,169.494675 385.905121,169.957382 386.891571,170.784531 
z"/>
<path fill="#27ABCC" opacity="1.000000" stroke="none" 
	d="
M510.467377,425.609009 
	C510.350952,426.060120 510.066772,426.336761 509.764435,426.591858 
	C509.756531,426.598541 509.550629,426.370697 509.437073,426.252258 
	C509.723785,425.978729 510.010498,425.705200 510.467377,425.609009 
z"/>
<path fill="#27ABCC" opacity="1.000000" stroke="none" 
	d="
M526.294556,426.886597 
	C526.211731,426.594360 526.302490,426.206390 526.513794,426.122711 
	C526.685730,426.054626 527.002014,426.351166 527.254272,426.485962 
	C527.009644,426.631470 526.764954,426.776978 526.294556,426.886597 
z"/>
<path fill="#27ABCC" opacity="1.000000" stroke="none" 
	d="
M478.273621,426.119202 
	C478.750732,426.219635 479.000977,426.360138 479.251221,426.500641 
	C479.001251,426.640717 478.689087,426.944733 478.517029,426.879456 
	C478.300415,426.797272 478.198334,426.413177 478.273621,426.119202 
z"/>
<path fill="#4AAABF" opacity="1.000000" stroke="none" 
	d="
M405.863098,186.854782 
	C405.638580,186.938354 405.333374,186.764053 404.954346,186.325958 
	C405.181152,186.240402 405.481781,186.418640 405.863098,186.854782 
z"/>
<path fill="#4AAABF" opacity="1.000000" stroke="none" 
	d="
M387.141907,209.871399 
	C387.084320,209.661133 387.283203,209.384506 387.736816,209.035278 
	C387.793823,209.243454 387.596100,209.524231 387.141907,209.871399 
z"/>
<path fill="#4AAABF" opacity="1.000000" stroke="none" 
	d="
M406.867645,187.848434 
	C406.644897,187.930527 406.340454,187.756119 405.962097,187.319397 
	C406.187439,187.235352 406.486694,187.413651 406.867645,187.848434 
z"/>
<path fill="#4AAABF" opacity="1.000000" stroke="none" 
	d="
M407.880737,188.823959 
	C407.662720,188.906540 407.354736,188.738541 406.971436,188.311020 
	C407.194366,188.225449 407.492584,188.399414 407.880737,188.823959 
z"/>
<path fill="#4AAABF" opacity="1.000000" stroke="none" 
	d="
M408.872101,189.850067 
	C408.658112,189.919312 408.367096,189.733307 408.000793,189.288391 
	C408.215393,189.217941 408.505219,189.406403 408.872101,189.850067 
z"/>
<path fill="#4AAABF" opacity="1.000000" stroke="none" 
	d="
M409.865906,190.931702 
	C409.637115,190.996964 409.339691,190.789413 408.968536,190.314468 
	C409.195618,190.251007 409.496490,190.454941 409.865906,190.931702 
z"/>
<path fill="#4AAABF" opacity="1.000000" stroke="none" 
	d="
M377.110779,218.837799 
	C377.026428,218.608627 377.207153,218.305862 377.648804,217.923615 
	C377.731781,218.150818 377.553833,218.457504 377.110779,218.837799 
z"/>
<path fill="#28AFD1" opacity="1.000000" stroke="none" 
	d="
M370.039307,157.676270 
	C367.195892,158.875626 364.406433,159.731796 361.335754,160.802414 
	C357.396301,161.188995 355.581482,162.338760 356.605072,166.673996 
	C357.266907,169.477219 355.694641,171.485947 352.140564,170.081512 
	C346.366791,167.799973 345.060913,165.436066 345.754883,159.133270 
	C346.166504,155.394577 346.235321,152.081161 349.570038,149.025681 
	C351.351959,147.392960 350.589294,142.983047 350.937927,140.129883 
	C352.994934,139.316086 355.317902,138.387268 357.650299,137.482834 
	C358.101868,137.307739 358.893158,136.984268 359.018127,137.139496 
	C363.334717,142.501434 369.965179,136.902588 375.441467,141.124237 
	C379.938049,144.590622 379.811584,149.304001 382.875549,152.481247 
	C380.633698,153.751251 378.697327,154.848221 376.025543,156.361771 
	C375.791107,156.143082 374.832764,155.249191 373.586182,154.086456 
	C372.428955,155.162094 371.261139,156.247589 370.039307,157.676270 
z"/>
<path fill="#28AFD1" opacity="1.000000" stroke="none" 
	d="
M349.975922,174.746002 
	C349.369598,175.326111 348.777985,175.542404 348.186340,175.758698 
	C348.186340,174.387405 348.186340,173.016113 348.186340,171.644836 
	C348.559204,171.602417 348.932068,171.559998 349.304932,171.517578 
	C349.533478,172.472443 349.762054,173.427307 349.975922,174.746002 
z"/>
</svg>